<svg xmlns="http://www.w3.org/2000/svg" width="60" height="48.6" viewBox="0 0 60 48.6"><title>Asset 2</title><path d="M4.48,2.35H0V1H16.8v1.4H12.32V36.9h4.54c5.6.34,9.74-3.47,11.25-10.36h1.46L28.5,38.3H0V36.9H4.48Z" fill="#4c936f"/><path d="M56.81,11H55.3c-.78-6-4.2-9.52-9.13-9.52-4,0-6.94,2.69-6.94,6.22a5,5,0,0,0,2.57,4.53c1.35.73,1.35.73,6.33,2.19,5.71,1.68,7.28,2.35,8.79,4A12.11,12.11,0,0,1,60,26.71,12.13,12.13,0,0,1,47.68,39.26c-3.24,0-6.1-1-9.4-3.31L36.43,38.3H35V27.89h1.51c1.4,6.1,5.55,9.85,10.87,9.85,4.37,0,7.89-3.19,7.89-7.16a6.39,6.39,0,0,0-2.46-5.16c-1.12-.78-1.4-.89-6.61-2.52-6.38-2.07-6.38-2.07-7.73-3.13A10,10,0,0,1,34.8,11.7,11.35,11.35,0,0,1,46.17,0a12,12,0,0,1,7.56,2.69L55.3,1h1.51Z" fill="#4c936f"/><rect y="43.6" width="60" height="5" fill="#4c936f"/></svg>