<svg xmlns="http://www.w3.org/2000/svg" width="250.93" height="52.75" viewBox="0 0 250.93 52.75"><title>Asset 7</title><path d="M4.65,1.68H0V.56H15.29V1.68H10.64V36.79h6.61C24,37.07,26,35.11,28.11,26.38h.73l-.95,11.53H0V36.79H4.65Z" fill="#008b8b"/><path d="M55.44,27.05A11.34,11.34,0,1,1,44.07,15.34,11.45,11.45,0,0,1,55.44,27.05ZM39.37,19c-.56,1.12-.62,1.91-.62,7.9,0,6.5.06,7.11.9,8.34s2.29,2,4.48,2,3.86-.78,4.7-2.4c.56-1.07.62-1.91.62-7.79,0-6.55-.06-7.22-.9-8.4-.9-1.34-2.3-2-4.54-2S40.21,17.42,39.37,19Z" fill="#008b8b"/><path d="M62.83,17H59.08V15.9h8.79v5.32c1.51-4,3.47-5.88,6-5.88a3.26,3.26,0,0,1,3.53,3.25,2.74,2.74,0,0,1-2.75,2.86,2.51,2.51,0,0,1-2.52-2.63c-.05-1-.11-1.18-.56-1.18s-1,.56-1.51,1.4c-1.68,2.86-2.24,6.05-2.24,12.54v5.21h3.7v1.12H59.08V36.79h3.75Z" fill="#008b8b"/><path d="M84.22,17H80.47V15.9h8.79V36.79H93v1.12H80.47V36.79h3.75ZM89.65,4.48a3.14,3.14,0,0,1-3.13,3.19,3.08,3.08,0,0,1-3.08-3.25,3,3,0,0,1,3.08-3.13A3.14,3.14,0,0,1,89.65,4.48Z" fill="#008b8b"/><path d="M131.32,9.86h-.84a9.51,9.51,0,0,0-2.07-5.27,8.6,8.6,0,0,0-6.84-3.3c-4.25,0-7.33,2.8-7.33,6.72a4.61,4.61,0,0,0,2.46,4.37c1,.56,2.75,1.12,6.33,2.07,4.53,1.23,5.6,1.68,7.11,3a10.7,10.7,0,0,1,3.31,8.29c0,7.39-4.71,12.71-11.15,12.71a12.26,12.26,0,0,1-8.4-3.25l-2.07,2.69h-1.18V26.38h.84c.51,3.08,1.12,4.81,2.36,6.49a10.2,10.2,0,0,0,8.51,4.31c4.81,0,8.12-3.24,8.12-8A6.73,6.73,0,0,0,128,23.63c-1.12-.84-2.13-1.17-6.44-2.29-4.59-1.24-6.22-1.91-7.62-3.31a8.82,8.82,0,0,1-2.63-6.66C111.27,5,115.75,0,121.57,0a12.36,12.36,0,0,1,7,2.3l2-2.3h.79Z" fill="#008b8b"/><path d="M159.71,36.79a5.17,5.17,0,0,1-3.87,1.68c-2.74,0-4.36-1.51-4.7-4.37a8.28,8.28,0,0,1-7.28,4.37c-3.53,0-5.94-2.13-5.94-5.21,0-2.74,1.8-4.92,5.1-6.27a23.05,23.05,0,0,1,8.12-1.23V21.9c0-3.2-.11-3.76-.73-4.48a4.11,4.11,0,0,0-3-1.12c-2,0-4.26,1.23-4.26,2.35,0,.22.06.33.28.61A2.33,2.33,0,0,1,144.2,21a2.3,2.3,0,0,1-2.3,2.41,2.34,2.34,0,0,1-2.41-2.47c0-3,4.15-5.6,8.79-5.6,2.75,0,5.27.9,6.61,2.36,1.23,1.28,1.29,1.56,1.29,6.49v6.16c0,5.32,0,5.32.22,5.83a.84.84,0,0,0,1,.67c.56,0,.67-.06,1.68-.9Zm-8.57-10.08c-3,.11-4.37.45-5.71,1.29a4.71,4.71,0,0,0-2.52,4.26c0,2.35,1.23,3.75,3.36,3.75a4.45,4.45,0,0,0,4-2.52c.62-1.07.9-2.75.9-5.66Z" fill="#008b8b"/><path d="M166.09,17h-3.75V15.9h8.79v2.92a8.17,8.17,0,0,1,7-3.48,8,8,0,0,1,5.77,2.19c1.23,1.4,1.57,2.69,1.57,6.83V36.79h3.69v1.12H177.07V36.79h3.36V28.17c0-6.67-.23-8.68-1.07-9.8A3.36,3.36,0,0,0,176.62,17a5.29,5.29,0,0,0-4.09,2.24c-1.12,1.57-1.4,4-1.4,10.87v6.66h3.36v1.12H162.34V36.79h3.75Z" fill="#008b8b"/><path d="M199.86,15.9h5.6V17h-5.6V32.93c0,1.62,0,2.18.45,2.74a2.36,2.36,0,0,0,2.12,1.07c1.68,0,2.64-1,3-3h1.17c-.56,3.14-2.57,4.76-5.93,4.76a5.89,5.89,0,0,1-4.82-2c-.95-1.18-1.06-1.74-1.06-5.21V17H191.4v-.78A15.58,15.58,0,0,0,199,7.34h.9Z" fill="#008b8b"/><path d="M217.78,46.82c-1.51,4.25-3.14,5.93-5.66,5.93A2.9,2.9,0,0,1,208.93,50a2.57,2.57,0,0,1,2.69-2.63A2.72,2.72,0,0,1,214,48.55c.34.51.5.62.84.62.56,0,.73-.28,1.79-3l3.14-8.29L210.22,17h-2.41V15.9h11.93V17h-3.92L222,31.36,227.24,17h-4.42V15.9H231V17h-2.24Z" fill="#008b8b"/><path d="M236.31,17h-3.75V15.9h8.79v5.32c1.51-4,3.47-5.88,6.05-5.88a3.26,3.26,0,0,1,3.53,3.25,2.74,2.74,0,0,1-2.75,2.86,2.5,2.5,0,0,1-2.51-2.63c-.06-1-.12-1.18-.57-1.18s-1,.56-1.51,1.4c-1.68,2.86-2.24,6.05-2.24,12.54v5.21h3.7v1.12H232.56V36.79h3.75Z" fill="#008b8b"/></svg>