<svg xmlns="http://www.w3.org/2000/svg" width="265.82" height="53.42" viewBox="0 0 265.82 53.42"><title>Asset 1</title><path d="M4.48,2.35H0V1H16.8v1.4H12.32V36.9h4.54c5.6.34,9.74-3.47,11.25-10.36h1.46L28.5,38.3H0V36.9H4.48Z" fill="#0fa34a"/><path d="M58.24,27.44c0,6.38-5.55,11.42-12.55,11.42s-12.54-5-12.54-11.59,5.49-11.53,12.49-11.53C52.81,15.74,58.24,20.78,58.24,27.44Zm-17-7.78c-.56,1.17-.84,3.47-.84,7.67,0,4.53.28,6.77,1.06,8a4.74,4.74,0,0,0,4.2,2.07,4.76,4.76,0,0,0,4.43-2.41c.56-1.17.84-3.52.84-7.56,0-4.7-.28-6.88-1.06-8.06a4.76,4.76,0,0,0-4.21-2.07A4.74,4.74,0,0,0,41.27,19.66Z" fill="#0fa34a"/><path d="M64.79,17.7H61V16.3h1.51a42.48,42.48,0,0,0,9-.62V20.5c1.46-3,3.92-4.76,6.5-4.76A4.35,4.35,0,0,1,82.6,20.1a3.46,3.46,0,0,1-3.53,3.59,3.14,3.14,0,0,1-3.25-3.19,2.87,2.87,0,0,1,.67-1.91.48.48,0,0,0,.17-.39.42.42,0,0,0-.45-.45,4.49,4.49,0,0,0-2.29,1.63c-1.74,2.12-2.41,4.31-2.41,7.72v9.8h4.31v1.4H61V36.9h3.75Z" fill="#0fa34a"/><path d="M88.59,17.7H84.84V16.3h1.73a41.43,41.43,0,0,0,8.74-.62V36.9H99v1.4H84.84V36.9h3.75ZM95,6.44a3.75,3.75,0,0,1-3.75,3.75A3.73,3.73,0,1,1,95,6.44Z" fill="#0fa34a"/><path d="M137.81,11H136.3c-.78-6-4.2-9.52-9.13-9.52-4,0-6.94,2.69-6.94,6.22a5,5,0,0,0,2.57,4.53c1.35.73,1.35.73,6.33,2.19,5.71,1.68,7.28,2.35,8.79,4A12.11,12.11,0,0,1,141,26.71a12.13,12.13,0,0,1-12.32,12.55c-3.24,0-6.1-1-9.4-3.31l-1.85,2.35H116V27.89h1.51c1.4,6.1,5.55,9.85,10.87,9.85,4.37,0,7.89-3.19,7.89-7.16a6.39,6.39,0,0,0-2.46-5.16c-1.12-.78-1.4-.89-6.61-2.52-6.38-2.07-6.38-2.07-7.73-3.13a10,10,0,0,1-3.64-8.07A11.35,11.35,0,0,1,127.17,0a12,12,0,0,1,7.56,2.69L136.3,1h1.51Z" fill="#0fa34a"/><path d="M168.67,36.06a6.68,6.68,0,0,1-5,2.52c-2,0-3.7-1.23-4.82-3.41a9.81,9.81,0,0,1-7.67,3.69c-3.7,0-6.16-2.07-6.16-5.26,0-4.7,4.87-7.62,13.83-8.34v-1.4c-.05-4.54-.05-4.54-.45-5.32s-1.56-1.29-3.19-1.29c-2.07,0-3.47.56-3.47,1.45a2.19,2.19,0,0,0,.39,1,2.91,2.91,0,0,1-2.52,4.7,2.8,2.8,0,0,1-2.74-3c0-3.19,4-5.65,9.18-5.65,3.31,0,6.16.89,7.67,2.35,1.18,1.12,1.4,2,1.4,5.49V33.77c0,1.79.23,2.24,1.18,2.24a2.21,2.21,0,0,0,1.51-.84Zm-9.86-9.29c-4.93.05-7.56,1.73-7.56,5A3.83,3.83,0,0,0,155.06,36a3.39,3.39,0,0,0,3-1.73c.56-1,.73-2,.73-4.65Z" fill="#0fa34a"/><path d="M173.82,17.7h-3.75V16.3h1.73a42.11,42.11,0,0,0,8.74-.62v4.09a10.69,10.69,0,0,1,8.46-4,8,8,0,0,1,5.31,1.73c1.35,1.18,1.74,2.41,1.74,5.49V36.9h3.7v1.4H186.31V36.9h3V23c0-3.7-.73-5-2.8-5a6.35,6.35,0,0,0-5.26,3.52c-.62,1.24-.73,1.85-.73,4.6V36.9h3v1.4H170.07V36.9h3.75Z" fill="#0fa34a"/><path d="M200.19,17.7v-.9c3.76-1.79,7-5.49,8.91-10.08h1.51V16.3h4.65v1.4h-4.65V33.32c0,2,.62,2.91,1.79,2.91,1.51,0,2.24-.95,2.91-3.64l1.57.28a6.93,6.93,0,0,1-1.45,3.42,7.43,7.43,0,0,1-5.94,2.57c-3.81,0-5.6-1.79-5.6-5.54V17.7Z" fill="#0fa34a"/><path d="M220.3,17.7h-2.75V16.3h12.88v1.4h-2.68l5.65,12.48,4-9.91a3.91,3.91,0,0,0,.45-1.57c0-.78-.34-1-1.68-1h-1.79V16.3h9.52v1.4h-1.35c-2-.06-2.63.33-3.41,2.18l-10.7,26.21c-1.4,3.41-1.9,4.42-2.85,5.49A4.76,4.76,0,0,1,222,53.42a3.4,3.4,0,0,1-3.64-3.3,3,3,0,0,1,2.91-3A3.37,3.37,0,0,1,224.1,49a.9.9,0,0,0,.79.5c.56,0,1.29-1.23,2.41-4.14L230,38.19Z" fill="#0fa34a"/><path d="M248,17.7h-3.76V16.3h1.52a42.48,42.48,0,0,0,9-.62V20.5c1.45-3,3.92-4.76,6.49-4.76a4.35,4.35,0,0,1,4.59,4.36,3.46,3.46,0,0,1-3.52,3.59,3.14,3.14,0,0,1-3.25-3.19,2.87,2.87,0,0,1,.67-1.91.51.51,0,0,0,.17-.39.42.42,0,0,0-.45-.45,4.54,4.54,0,0,0-2.3,1.63c-1.73,2.12-2.4,4.31-2.4,7.72v9.8h4.31v1.4H244.26V36.9H248Z" fill="#0fa34a"/></svg>