<svg xmlns="http://www.w3.org/2000/svg" width="47.66" height="38.6" viewBox="0 0 47.66 38.6"><title>Asset 4</title><path d="M3.56,1.87H0V.76H13.34V1.87H9.79V29.31h3.6c4.45.27,7.74-2.76,8.94-8.23h1.15l-.84,9.34H0V29.31H3.56Z" fill="#008b8b"/><path d="M45.12,8.76h-1.2C43.3,4,40.59,1.2,36.67,1.2c-3.16,0-5.51,2.14-5.51,4.94a4,4,0,0,0,2,3.6c1.07.58,1.07.58,5,1.74,4.54,1.33,5.78,1.86,7,3.15a9.62,9.62,0,0,1,2.45,6.59,9.64,9.64,0,0,1-9.79,10,12.5,12.5,0,0,1-7.47-2.63l-1.47,1.87H27.78V22.15H29C30.09,27,33.38,30,37.61,30a6,6,0,0,0,6.27-5.7,5.06,5.06,0,0,0-2-4.09c-.89-.62-1.11-.71-5.25-2-5.07-1.64-5.07-1.64-6.14-2.49a7.92,7.92,0,0,1-2.89-6.4,9,9,0,0,1,9-9.3,9.58,9.58,0,0,1,6,2.13L43.92.76h1.2Z" fill="#008b8b"/><rect y="34.63" width="47.66" height="3.97" fill="#008b8b"/></svg>